<?xml version="1.0" standalone="no"?><!DOCTYPE svg PUBLIC "-//W3C//DTD SVG 1.1//EN" "http://www.w3.org/Graphics/SVG/1.1/DTD/svg11.dtd"><svg t="1702025252938" class="icon" viewBox="0 0 1024 1024" version="1.1" xmlns="http://www.w3.org/2000/svg" p-id="7171" xmlns:xlink="http://www.w3.org/1999/xlink" width="48" height="48"><path d="M540.36 958.78h-65.18c-52.93 0-96-43.07-96-96V160.71c0-52.93 43.07-96 96-96h65.18c52.93 0 96 43.07 96 96v702.07c0 52.93-43.06 96-96 96z m-65.18-830.07c-17.65 0-32 14.35-32 32v702.07c0 17.64 14.35 32 32 32h65.18c17.64 0 32-14.36 32-32V160.71c0-17.65-14.36-32-32-32h-65.18z" p-id="7172"></path><path d="M863.02 958.78h-65.18c-52.93 0-96-43.07-96-96V574.61c0-52.93 43.07-96 96-96h65.18c52.93 0 96 43.07 96 96v288.17c0 52.93-43.07 96-96 96z m-65.18-416.17c-17.64 0-32 14.36-32 32v288.17c0 17.64 14.36 32 32 32h65.18c17.64 0 32-14.36 32-32V574.61c0-17.64-14.36-32-32-32h-65.18z" p-id="7173"></path><path d="M226.21 958.78h-65.18c-52.93 0-96-43.07-96-96V446.37c0-52.93 43.07-96 96-96h65.18c52.93 0 96 43.07 96 96v416.41c0 52.93-43.07 96-96 96z m-65.18-544.41c-17.65 0-32 14.35-32 32v416.41c0 17.64 14.35 32 32 32h65.18c17.65 0 32-14.36 32-32V446.37c0-17.65-14.35-32-32-32h-65.18z" p-id="7174"></path></svg>