<?xml version="1.0" standalone="no"?><!DOCTYPE svg PUBLIC "-//W3C//DTD SVG 1.1//EN" "http://www.w3.org/Graphics/SVG/1.1/DTD/svg11.dtd"><svg t="1721293953853" class="icon" viewBox="0 0 1024 1024" version="1.1" xmlns="http://www.w3.org/2000/svg" p-id="11932" xmlns:xlink="http://www.w3.org/1999/xlink" width="48" height="48"><path d="M768 320a64 64 0 0 1 64 64v256a64 64 0 0 1-64 64H256a64 64 0 0 1-64-64V544H128v-64h64V384a64 64 0 0 1 64-64h512z m-512 320h96V384H256v256z m512-256H416v256H768V384zM112 768h-32a16 16 0 0 1-16-16v-480A16 16 0 0 1 80 256h32a16 16 0 0 1 16 16v480a16 16 0 0 1-16 16zM960 752a16 16 0 0 1-16 16h-32a16 16 0 0 1-16-16V544h-64v-64h64V272a16 16 0 0 1 16-16h32a16 16 0 0 1 16 16v480z" p-id="11933"></path></svg>