<?xml version="1.0" standalone="no"?><!DOCTYPE svg PUBLIC "-//W3C//DTD SVG 1.1//EN" "http://www.w3.org/Graphics/SVG/1.1/DTD/svg11.dtd"><svg t="1721204632304" class="icon" viewBox="0 0 1024 1024" version="1.1" xmlns="http://www.w3.org/2000/svg" p-id="7564" xmlns:xlink="http://www.w3.org/1999/xlink" width="48" height="48"><path d="M522.666667 86.826667c17.066667 0 32 14.933333 32 32s-14.933333 32-32 32h-362.666667c-6.4 0-10.666667 4.266667-10.666667 10.666666v704c0 6.4 4.266667 10.666667 10.666667 10.666667h704c6.4 0 10.666667-4.266667 10.666667-10.666667v-362.666666c0-17.066667 14.933333-32 32-32s32 14.933333 32 32v362.666666c0 40.533333-34.133333 74.666667-74.666667 74.666667h-704c-40.533333 0-74.666667-34.133333-74.666667-74.666667v-704c0-40.533333 34.133333-74.666667 74.666667-74.666666z m386.133333 27.733333c37.205333 37.205333 38.357333 98.432 3.477333 137.130667l-3.477333 3.690666-343.466667 343.466667a31.402667 31.402667 0 0 1-11.904 7.466667l-3.029333 1.066666-125.866667 32h-8.533333c-8.533333 0-17.066667-2.133333-23.466667-8.533333-7.765333-5.824-10.24-16.938667-9.002666-26.922667l0.469333-2.944 32-125.866666c1.770667-5.333333 3.562667-9.194667 6.570667-12.8l1.962666-2.133334L768 114.56c38.4-38.4 102.4-38.4 140.8 0z m-91.349333 44.693333l-2.517334 2.261334-339.2 337.066666-14.933333 68.266667 66.133333-17.066667 337.066667-339.2c12.8-12.8 12.8-36.266667 0-49.066666-12.010667-12.010667-33.365333-12.757333-46.549333-2.261334z" p-id="7565"></path></svg>