<?xml version="1.0" standalone="no"?><!DOCTYPE svg PUBLIC "-//W3C//DTD SVG 1.1//EN" "http://www.w3.org/Graphics/SVG/1.1/DTD/svg11.dtd"><svg t="1721294131288" class="icon" viewBox="0 0 1024 1024" version="1.1" xmlns="http://www.w3.org/2000/svg" p-id="14729" xmlns:xlink="http://www.w3.org/1999/xlink" width="48" height="48"><path d="M838.4 486.4c-25.6-32-44.8-57.6-51.2-70.4-6.4-12.8-6.4-25.6 0-51.2 6.4-32 12.8-83.2 0-172.8-12.8-76.8-57.6-108.8-89.6-121.6-64-25.6-134.4 6.4-166.4 32-44.8 32-76.8 83.2-108.8 134.4v6.4l-12.8 6.4c-19.2 32-51.2 76.8-64 83.2-12.8 6.4-25.6 6.4-51.2 6.4-38.4 0-70.4 0-108.8 6.4-51.2 12.8-89.6 44.8-108.8 96-6.4 19.2-12.8 44.8-19.2 70.4-6.4 153.6 57.6 313.6 140.8 371.2 57.6 38.4 76.8 38.4 134.4 32 32-6.4 64-6.4 96-6.4 76.8 0 140.8 19.2 198.4 32 38.4 12.8 70.4 19.2 102.4 25.6h25.6c64 0 102.4-19.2 140.8-57.6 57.6-57.6 64-115.2 64-179.2v-19.2c12.8-64-44.8-134.4-121.6-224z m64 236.8c-6.4 64-6.4 102.4-44.8 140.8s-64 44.8-121.6 38.4c-25.6 0-51.2-6.4-83.2-19.2-57.6-19.2-128-38.4-204.8-38.4h-19.2c-32 0-64 6.4-102.4 6.4-44.8 6.4-51.2 6.4-89.6-19.2-57.6-38.4-115.2-172.8-115.2-313.6 6.4-12.8 12.8-96 70.4-108.8 32-6.4 64-6.4 96-6.4s64 0 89.6-12.8c25.6-12.8 51.2-51.2 89.6-115.2 32-44.8 64-102.4 96-121.6 19.2-12.8 70.4-38.4 108.8-19.2 25.6 6.4 38.4 32 44.8 70.4 12.8 76.8 6.4 121.6 0 147.2 0 32-6.4 57.6 12.8 96 12.8 19.2 32 44.8 64 83.2 44.8 51.2 115.2 140.8 115.2 179.2l-6.4 12.8z m-192-134.4c-57.6-76.8-57.6-121.6-51.2-179.2V384v-32c6.4-57.6 6.4-102.4-32-115.2-38.4-12.8-83.2 38.4-83.2 38.4s-51.2 76.8-38.4 140.8c6.4 25.6 19.2 51.2 38.4 76.8 12.8 25.6 32 51.2 32 76.8 0 6.4 0 25.6-6.4 38.4-6.4 44.8-19.2 115.2 32 147.2 64 44.8 198.4 32 224-19.2 19.2-32-6.4-51.2-44.8-83.2-19.2-12.8-44.8-38.4-70.4-64zM403.2 512c-19.2 6.4-38.4 0-57.6-6.4-12.8 0-32-6.4-57.6-6.4H256c-44.8 12.8-76.8 57.6-70.4 108.8 6.4 51.2 32 70.4 57.6 96 6.4 0 12.8 0 12.8 6.4 38.4 32 102.4 44.8 192-19.2s51.2-147.2 25.6-179.2c-12.8-19.2-25.6-12.8-51.2-6.4-6.4 0-12.8 6.4-19.2 6.4z" p-id="14730"></path></svg>