<?xml version="1.0" standalone="no"?><!DOCTYPE svg PUBLIC "-//W3C//DTD SVG 1.1//EN" "http://www.w3.org/Graphics/SVG/1.1/DTD/svg11.dtd"><svg t="1721293796476" class="icon" viewBox="0 0 1024 1024" version="1.1" xmlns="http://www.w3.org/2000/svg" p-id="10774" xmlns:xlink="http://www.w3.org/1999/xlink" width="48" height="48"><path d="M932.1 171.6h-32.2c-11.1 0-20 9-20 20v202.2L550.8 288.9v-97.4c0-11-9-20-20-20h-32.2c-11.1 0-20 9-20 20v92.8L149.5 359V191.6c0-11-9-20-20-20H97.3c-11 0-20 9-20 20v657.9c0 11 9 20 20 20h32.2c11 0 20-9 20-20V671l329.1 104.8v73.6c0 11 9 20 20 20h32.2c11 0 20-9 20-20v-70.1l329.1-90.8v160.9c0 11 9 20 20 20h32.2c11 0 20-9 20-20V191.6c0-11-9-20-20-20zM478.6 579.3L297.9 498l180.7-69.3v150.6z m0-267.2v90.5l-0.8-2.3-216.2 82.2-112-47.8v-48l329-74.6zM149.5 466.7l71.4 30.5-71.4 25.9v-56.4z m0 176.1v-90.9l107.8-39.1 221.3 98.7v136.2L149.5 642.8zM879.9 516l-64.3-22 64.3-26.2V516z m0-95.4v15.3l-106.7 43.5-222.4-79.6v-84l329.1 104.8z m-329.1 10.3l190.8 65.4L550.8 574V430.9z m0 320.6V605.9l223.2-95 105.9 36.3v113.5l-329.1 90.8z" p-id="10775"></path></svg>