<?xml version="1.0" standalone="no"?><!DOCTYPE svg PUBLIC "-//W3C//DTD SVG 1.1//EN" "http://www.w3.org/Graphics/SVG/1.1/DTD/svg11.dtd"><svg t="1721294007808" class="icon" viewBox="0 0 1024 1024" version="1.1" xmlns="http://www.w3.org/2000/svg" p-id="13440" xmlns:xlink="http://www.w3.org/1999/xlink" width="48" height="48"><path d="M992 64c-12.8 0-25.6 12.8-25.6 25.6v140.8c-172.8 44.8-300.8 96-377.6 147.2-12.8 0-19.2-6.4-32-12.8l-19.2-19.2C396.8 249.6 236.8 204.8 57.6 198.4V89.6C57.6 76.8 44.8 64 32 64s-25.6 12.8-25.6 25.6v838.4c0 12.8 12.8 25.6 25.6 25.6s25.6-12.8 25.6-25.6v-70.4c198.4-19.2 364.8-83.2 499.2-198.4l38.4-19.2c121.6 76.8 243.2 115.2 371.2 121.6v172.8c0 12.8 12.8 25.6 25.6 25.6s25.6-12.8 25.6-25.6V89.6c0-12.8-12.8-25.6-25.6-25.6z m-25.6 473.6c-51.2-6.4-96-19.2-140.8-32 6.4-6.4 19.2-6.4 25.6-12.8 38.4-12.8 76.8-25.6 115.2-32v76.8z m0-243.2v102.4c-44.8 12.8-96 25.6-134.4 38.4l-38.4 19.2-38.4 19.2c-38.4-19.2-76.8-38.4-108.8-57.6 64-38.4 172.8-83.2 320-121.6zM57.6 416c121.6 12.8 230.4 44.8 326.4 96-76.8 38.4-185.6 76.8-326.4 115.2V416z m0 390.4v-115.2l38.4-12.8C249.6 633.6 364.8 588.8 448 537.6l76.8 57.6 19.2 12.8c-134.4 115.2-294.4 179.2-486.4 198.4z m499.2-262.4l-19.2-12.8C396.8 435.2 236.8 377.6 57.6 358.4V256c179.2 6.4 332.8 57.6 467.2 153.6l25.6 19.2c64 44.8 128 76.8 192 108.8v6.4c70.4 32 140.8 51.2 217.6 57.6V704c-134.4-6.4-268.8-57.6-403.2-160z" p-id="13441"></path></svg>