<?xml version="1.0" standalone="no"?><!DOCTYPE svg PUBLIC "-//W3C//DTD SVG 1.1//EN" "http://www.w3.org/Graphics/SVG/1.1/DTD/svg11.dtd"><svg t="1721293676244" class="icon" viewBox="0 0 1024 1024" version="1.1" xmlns="http://www.w3.org/2000/svg" p-id="8615" xmlns:xlink="http://www.w3.org/1999/xlink" width="48" height="48"><path d="M266.189 728.651c-23 0-41.649-18.647-41.649-41.651s18.649-41.653 41.649-41.653c23.004 0 41.656 18.649 41.656 41.653s-18.652 41.651-41.656 41.651zM270.573 517c0-34.602 28.044-62.652 62.657-62.652 34.603 0 62.646 28.05 62.646 62.652 0 34.602-28.043 62.652-62.646 62.652-34.607 0-62.657-28.05-62.657-62.652z m249.428 177.28c-29.632 0-53.653-24.021-53.653-53.647 0-29.636 24.021-53.653 53.653-53.653 29.631 0 53.652 24.018 53.652 53.653 0 29.626-24.021 53.647-53.652 53.647z m253.774-121.79c-23.004 0-41.652-18.648-41.652-41.648 0-23.006 18.648-41.652 41.652-41.652s41.652 18.646 41.652 41.652c0.001 23-18.648 41.648-41.652 41.648z m-185.244-30.594c-45.513 0-82.408-36.896-82.408-82.4 0-45.519 36.896-82.409 82.408-82.409s82.408 36.89 82.408 82.409c0 45.504-36.895 82.4-82.408 82.4z m115.276-225.728c-23.004 0-41.652-18.653-41.652-41.657s18.648-41.652 41.652-41.652 41.652 18.648 41.652 41.652-18.648 41.657-41.652 41.657z m-540.595 504.66h697.579c15.344 0 27.898 12.558 27.898 27.909 0 15.345-12.555 27.895-27.898 27.895H163.212c-15.343 0-27.902-12.55-27.902-27.895 0.001-15.351 12.556-27.909 27.902-27.909z m-27.901 28.082V151.331c0-15.344 12.558-27.898 27.909-27.898 15.345 0 27.895 12.555 27.895 27.898l0.001 697.579c0 15.342-12.551 27.902-27.895 27.902-15.353 0.001-27.91-12.556-27.91-27.902z m27.901-28.082" p-id="8616"></path></svg>