<?xml version="1.0" standalone="no"?><!DOCTYPE svg PUBLIC "-//W3C//DTD SVG 1.1//EN" "http://www.w3.org/Graphics/SVG/1.1/DTD/svg11.dtd"><svg t="1721354054580" class="icon" viewBox="0 0 1024 1024" version="1.1" xmlns="http://www.w3.org/2000/svg" p-id="17081" xmlns:xlink="http://www.w3.org/1999/xlink" width="48" height="48"><path d="M219.7 849.2C294.3 914 390 954.1 495 958.2V797.6c-61.9-3.5-118.1-26.4-162.8-63L219.7 849.2zM332 734.5zM540.2 797.6v161C648 951.8 745.4 907 819.3 837.1L705.9 723.5c-44.8 40.8-102.1 67.7-165.7 74.1zM488.5 423.1v-145C369.8 290.2 277 389.8 277 512c0 56.2 19.5 107.2 52.2 147.9l99.8-99.8c-7.5-13.2-11.4-28.7-11.4-45.2-0.2-44.2 30.3-80.8 70.9-91.8z" p-id="17082"></path><path d="M225.4 512c0-150.2 115.8-273.5 263.2-285.6v-161C252.4 78.1 64.8 272.9 64.8 512c0 114.7 43 219 114.1 298.1l113.5-113.5c-41.8-49.9-67-114.1-67-184.6zM747.1 512c0-120.4-90.6-219.6-206.9-233.4v145.6c38.4 12.1 66.5 48.2 66.5 90.6 0 52.2-42.4 94.6-94.6 94.6-16.6 0-32.1-4.6-45.9-12.1l-98 100.4c39.5 30.9 90 49.3 143.9 49.3 129.5 0 235-105.4 235-235z" p-id="17083"></path><path d="M540.2 66v161.1c145 14.3 258.6 136.5 258.6 285.6 0 66-22.4 127.3-60.2 175.5l114.1 114.1c66.5-77.9 106.6-178.8 106.6-289.6 0-238.1-185.2-432.4-419.1-446.7z" p-id="17084"></path></svg>