<?xml version="1.0" standalone="no"?><!DOCTYPE svg PUBLIC "-//W3C//DTD SVG 1.1//EN" "http://www.w3.org/Graphics/SVG/1.1/DTD/svg11.dtd"><svg t="1721353358122" class="icon" viewBox="0 0 1024 1024" version="1.1" xmlns="http://www.w3.org/2000/svg" p-id="15885" xmlns:xlink="http://www.w3.org/1999/xlink" width="48" height="48"><path d="M85.333 512A85.333 85.333 0 1 0 256 512a85.333 85.333 0 1 0-170.667 0zM448 277.333a64 64 0 1 0 128 0 64 64 0 1 0-128 0zM448 746.667a64 64 0 1 0 128 0 64 64 0 1 0-128 0zM448 512a64 64 0 1 0 128 0 64 64 0 1 0-128 0zM853.333 691.2a42.667 42.667 0 1 0 85.334 0 42.667 42.667 0 1 0-85.334 0zM853.333 452.267a42.667 42.667 0 1 0 85.334 0 42.667 42.667 0 1 0-85.334 0zM853.333 571.733a42.667 42.667 0 1 0 85.334 0 42.667 42.667 0 1 0-85.334 0zM853.333 810.667a42.667 42.667 0 1 0 85.334 0 42.667 42.667 0 1 0-85.334 0zM853.333 332.8a42.667 42.667 0 1 0 85.334 0 42.667 42.667 0 1 0-85.334 0zM853.333 213.333a42.667 42.667 0 1 0 85.334 0 42.667 42.667 0 1 0-85.334 0z" p-id="15886"></path><path d="M160 490.667h362.667v42.666H160z" opacity=".6" p-id="15887"></path><path d="M522.667 744.533l-2.134-10.666h-10.666c-17.067 0-106.667 2.133-160-78.934C294.4 571.733 219.733 522.667 192 505.6c-2.133-2.133-6.4-4.267-6.4-4.267l-8.533-17.066-27.734 53.333h14.934C174.933 544 256 590.933 315.733 678.4c59.734 89.6 157.867 96 185.6 96h6.4l19.2 19.2-4.266-49.067z" opacity=".6" p-id="15888"></path><path d="M539.733 256h-10.666c-29.867-2.133-134.4 0-198.4 96-61.867 91.733-153.6 140.8-153.6 140.8l-10.667 4.267 21.333 38.4 8.534-4.267S294.4 477.867 364.8 375.467c53.333-78.934 142.933-78.934 162.133-78.934H537.6l2.133-32V256zM514.133 522.667L512 501.333c2.133 0 162.133-23.466 228.267-42.666 68.266-21.334 153.6-17.067 157.866-17.067v21.333S810.667 460.8 746.667 480c-68.267 19.2-226.134 42.667-232.534 42.667z" opacity=".6" p-id="15889"></path><path d="M883.2 588.8c-27.733 0-91.733-2.133-145.067-17.067-64-19.2-226.133-42.666-228.266-42.666L512 507.733c6.4 0 164.267 23.467 230.4 42.667 64 19.2 151.467 17.067 151.467 17.067V588.8H883.2zM522.667 281.6l-2.134-21.333c2.134 0 162.134-23.467 228.267-42.667 68.267-21.333 153.6-17.067 157.867-17.067v21.334S819.2 219.733 755.2 238.933c-68.267 19.2-226.133 42.667-232.533 42.667z" opacity=".6" p-id="15890"></path><path d="M891.733 347.733c-27.733 0-91.733-2.133-145.066-17.066-64-19.2-226.134-42.667-228.267-42.667l2.133-21.333c6.4 0 164.267 23.466 230.4 42.666 64 19.2 151.467 17.067 151.467 17.067v21.333h-10.667zM514.133 761.6L512 740.267c2.133 0 162.133-23.467 228.267-42.667 68.266-21.333 153.6-17.067 157.866-17.067v21.334s-87.466-2.134-151.466 17.066c-68.267 19.2-226.134 40.534-232.534 42.667z" opacity=".6" p-id="15891"></path><path d="M883.2 827.733c-27.733 0-91.733-2.133-145.067-17.066C674.133 791.467 512 768 509.867 768L512 746.667c6.4 0 164.267 23.466 230.4 42.666 64 19.2 149.333 17.067 151.467 17.067v21.333H883.2z" opacity=".6" p-id="15892"></path></svg>